<svg width="18" height="11" viewBox="0 0 18 11" fill="none" xmlns="http://www.w3.org/2000/svg">
<path d="M9.00376 6.65979L2.26974 0.272621C2.08477 0.0967498 1.83745 2.07838e-08 1.57375 1.78009e-08C1.3099 1.48165e-08 1.06273 0.0967498 0.877459 0.272621L0.287706 0.8323C0.102146 1.00789 1.10479e-07 1.24262 1.07334e-07 1.49275C1.04189e-07 1.74289 0.102146 1.97734 0.287706 2.15307L8.30513 9.75802C8.49098 9.93444 8.73932 10.0311 9.00332 10.0304C9.26849 10.0311 9.51654 9.93458 9.70254 9.75802L17.7122 2.16015C17.8978 1.98442 17.9999 1.74997 17.9999 1.4997C17.9999 1.24956 17.8978 1.01511 17.7122 0.839241L17.1224 0.2797C16.7386 -0.0843964 16.1137 -0.0843964 15.73 0.2797L9.00376 6.65979Z" fill="#828282"/>
</svg>
